<?xml version="1.0" standalone="no"?>
<!DOCTYPE svg PUBLIC "-//W3C//DTD SVG 20010904//EN"
 "http://www.w3.org/TR/2001/REC-SVG-20010904/DTD/svg10.dtd">
<svg version="1.0" xmlns="http://www.w3.org/2000/svg"
 width="1280.000000pt" height="1248.000000pt" viewBox="0 0 1280.000000 1248.000000"
 preserveAspectRatio="xMidYMid meet">

<g transform="translate(0.000000,1248.000000) scale(0.100000,-0.100000)"
fill="#000000" stroke="none">
<path d="M5990 10316 c-648 -93 -1218 -491 -1537 -1076 -488 -892 -251 -2033
552 -2659 552 -431 1252 -553 1920 -335 343 112 687 347 927 633 692 827 651
2047 -97 2820 -312 323 -685 523 -1132 607 -120 22 -502 28 -633 10z m605 -80
c785 -139 1406 -706 1609 -1472 45 -168 58 -262 63 -471 6 -228 -8 -362 -57
-560 -125 -496 -426 -918 -859 -1202 -690 -453 -1608 -418 -2279 86 -592 446
-897 1218 -771 1956 149 878 833 1548 1709 1671 128 19 463 14 585 -8z"/>
<path d="M5478 9930 c4 -74 2 -83 -22 -114 -32 -42 -32 -44 -3 -48 15 -2 23
-11 25 -28 9 -89 14 -110 27 -110 8 0 19 9 25 20 16 30 30 24 30 -11 0 -18
-10 -43 -25 -60 -25 -31 -24 -62 3 -57 9 2 19 14 22 28 6 22 11 25 43 23 20
-1 37 2 37 8 0 5 -14 37 -31 71 -24 48 -29 68 -24 95 7 38 -15 83 -40 83 -20
0 -19 19 5 55 21 31 24 65 11 100 -7 18 -10 15 -29 -20 -21 -41 -28 -38 -34
14 -2 14 -8 26 -13 28 -6 2 -9 -26 -7 -77z m52 -192 c0 -21 -4 -38 -9 -38 -12
0 -25 76 -16 91 12 18 25 -11 25 -53z"/>
<path d="M7023 9920 c-10 -28 -15 -30 -60 -30 -27 0 -54 5 -60 11 -6 6 -16 8
-22 5 -14 -9 -3 -57 16 -73 13 -10 3 -18 -54 -46 -38 -20 -97 -41 -131 -47
-71 -14 -74 -35 -3 -25 120 17 306 82 326 115 3 5 25 10 48 10 40 0 104 30 91
42 -3 3 -27 4 -52 1 -46 -4 -48 -3 -57 28 -13 43 -28 46 -42 9z"/>
<path d="M5625 9681 c-3 -5 9 -17 26 -25 40 -20 39 -21 39 9 0 21 -5 25 -29
25 -17 0 -32 -4 -36 -9z"/>
<path d="M6966 9666 c-3 -14 -18 -39 -33 -57 -24 -28 -25 -32 -8 -25 11 4 35
10 52 13 37 6 48 28 34 67 -13 33 -37 34 -45 2z"/>
<path d="M6076 9664 c-315 -42 -594 -181 -822 -409 -359 -358 -501 -871 -374
-1360 51 -196 130 -359 249 -511 143 -184 297 -310 496 -409 233 -115 376
-148 640 -149 243 0 390 31 600 127 675 309 1000 1091 744 1789 -136 370 -453
696 -812 834 -235 90 -484 121 -721 88z m464 -69 c181 -40 351 -112 505 -213
90 -59 297 -266 357 -358 263 -397 311 -880 132 -1308 l-36 -86 -1230 0 -1229
0 -34 73 c-159 345 -149 799 25 1148 204 408 574 680 1025 755 106 18 383 11
485 -11z m910 -2043 c0 -13 -71 -114 -128 -182 -214 -257 -528 -432 -860 -480
-53 -8 -145 -11 -250 -7 -146 4 -182 9 -287 36 -249 66 -441 176 -626 360 -95
95 -219 251 -219 276 0 3 533 5 1185 5 652 0 1185 -3 1185 -8z"/>
<path d="M6097 9156 c-91 -184 -170 -336 -175 -339 -4 -4 -60 50 -123 118 -63
69 -117 125 -120 125 -3 0 -61 -113 -128 -251 l-123 -251 -159 7 -159 8 0 -93
0 -92 110 4 c77 2 110 0 110 -8 0 -6 -20 -54 -44 -107 -25 -52 -42 -98 -39
-101 9 -9 146 -7 160 2 6 4 34 55 61 115 l51 107 105 0 c58 0 106 -1 106 -3 0
-1 -20 -49 -45 -106 -25 -57 -42 -107 -39 -113 6 -10 146 -9 162 1 5 3 30 54
57 114 l48 107 134 0 c104 0 133 -3 127 -12 -4 -7 -22 -34 -41 -59 -18 -26
-33 -49 -33 -53 0 -3 14 -6 31 -6 l32 0 -6 -62 c-12 -124 -38 -332 -42 -336
-13 -13 -102 14 -158 48 l-65 40 -52 -35 c-64 -43 -119 -60 -190 -58 -61 1
-152 36 -201 77 l-29 25 -50 -34 c-28 -19 -67 -37 -86 -41 -52 -10 -131 2
-171 26 -19 11 -38 20 -42 20 -8 0 -41 -77 -41 -97 0 -21 103 -56 180 -61 62
-3 87 0 143 21 l69 25 62 -29 c124 -58 243 -60 357 -5 l52 24 56 -28 c72 -37
134 -50 193 -41 40 7 63 17 112 55 7 5 26 -2 50 -18 72 -49 172 -48 279 2 l67
31 61 -32 c56 -29 70 -32 148 -31 52 0 102 7 126 16 22 9 61 24 87 34 46 17
48 17 85 0 79 -39 247 -31 321 14 l32 19 -21 48 c-11 26 -22 49 -24 51 -2 2
-29 -8 -60 -23 -47 -24 -64 -27 -114 -22 -53 4 -106 25 -157 62 -20 15 -24 14
-52 -10 -17 -14 -57 -37 -89 -52 -103 -48 -219 -31 -312 44 l-24 19 -84 -43
c-76 -39 -153 -57 -153 -36 0 4 -12 90 -26 191 -14 101 -22 187 -19 190 3 3
73 8 155 10 l150 4 31 -66 31 -66 89 0 c49 0 89 2 89 5 0 3 -11 28 -25 55 -14
27 -25 53 -25 57 0 4 48 7 108 5 l108 -3 23 -60 23 -59 89 0 c100 0 100 0 69
69 -11 24 -20 45 -20 47 0 2 36 4 80 4 l81 0 -3 88 -3 87 -125 0 -125 0 -142
285 c-77 157 -149 298 -158 315 l-17 30 -123 -130 -123 -130 -147 300 c-192
394 -187 385 -195 385 -4 0 -82 -150 -173 -334z m267 -204 c49 -108 122 -268
163 -355 40 -87 73 -165 73 -173 0 -11 -23 -14 -120 -14 -66 0 -120 3 -120 6
0 3 18 29 40 56 22 28 40 55 40 59 0 5 -24 9 -54 9 l-53 0 -13 105 -13 105
-37 0 c-43 0 -42 3 -61 -129 l-12 -84 -66 7 c-36 3 -83 6 -103 6 -27 0 -38 4
-38 15 0 8 45 108 101 222 55 114 117 243 136 286 20 42 39 77 42 77 3 0 46
-89 95 -198z m546 -334 c48 -101 86 -185 84 -187 -2 -2 -48 -7 -103 -10 l-99
-6 -53 115 c-29 63 -54 118 -56 122 -4 7 125 148 134 148 3 0 44 -82 93 -182z
m-1121 108 l61 -65 -19 -48 -19 -48 -93 -3 c-51 -1 -99 0 -106 2 -10 4 1 34
42 116 30 60 59 110 63 110 5 0 37 -29 71 -64z"/>
<path d="M6068 7382 c-78 -47 -23 -179 65 -156 25 6 27 4 27 -23 0 -16 -5 -34
-12 -41 -17 -17 -54 -15 -72 3 -16 16 -46 20 -46 6 0 -5 8 -19 18 -30 24 -31
96 -32 126 -2 18 19 21 33 21 117 0 92 -1 97 -28 120 -33 28 -61 30 -99 6z
m87 -72 c0 -42 -2 -45 -28 -48 -36 -4 -57 13 -57 47 0 36 19 53 55 49 28 -3
30 -5 30 -48z"/>
<path d="M6363 7380 c-30 -28 -46 -84 -41 -147 7 -76 32 -107 90 -111 39 -3
49 1 66 23 25 32 37 98 27 156 -14 82 -92 126 -142 79z m94 -50 c16 -31 17
-114 2 -143 -22 -42 -48 -48 -79 -17 -26 26 -28 133 -4 168 21 31 64 26 81 -8z"/>
<path d="M6647 7374 c-33 -28 -37 -59 -7 -49 19 6 20 2 20 -99 0 -99 1 -106
20 -106 19 0 20 7 20 134 0 148 -6 161 -53 120z"/>
<path d="M5826 7367 c-31 -25 -28 -52 5 -42 18 6 19 0 19 -99 0 -88 3 -106 15
-106 13 0 15 22 15 135 0 148 -2 153 -54 112z"/>
<path d="M4550 9082 c0 -4 9 -15 19 -24 10 -9 39 -44 62 -78 35 -50 45 -58 47
-41 5 28 -64 138 -91 145 -30 8 -37 7 -37 -2z"/>
<path d="M4780 9026 c0 -2 7 -20 15 -39 8 -20 15 -48 15 -62 0 -15 4 -24 10
-20 6 3 10 13 10 22 0 8 7 31 17 50 14 30 14 36 2 44 -14 8 -69 13 -69 5z"/>
<path d="M7950 9000 c-16 -11 -11 -17 54 -64 16 -11 26 -28 26 -43 0 -21 -3
-23 -22 -17 -34 10 -120 54 -146 75 -13 10 -30 15 -38 12 -19 -7 -18 -39 1
-47 26 -9 17 -28 -12 -24 -27 3 -28 1 -25 -34 4 -47 -3 -48 -22 -5 -7 17 -31
52 -53 77 l-40 44 -16 -25 c-21 -31 -41 -132 -32 -159 8 -24 43 -34 90 -26 35
7 35 7 35 -29 0 -24 4 -35 15 -35 11 0 15 11 15 39 0 22 5 43 11 47 6 3 17 20
24 37 11 27 17 31 56 31 35 1 43 4 41 18 -2 13 14 8 75 -22 43 -21 95 -40 116
-43 34 -4 37 -3 37 19 0 18 -10 31 -35 45 -19 12 -35 27 -35 35 0 8 -10 19
-22 24 -13 5 -34 18 -47 30 -19 16 -21 23 -11 35 10 12 9 15 -6 15 -11 0 -26
-5 -34 -10z m-232 -156 c31 -47 28 -56 -15 -52 -30 2 -39 8 -47 29 -5 14 -6
38 -2 53 5 22 9 24 24 15 10 -6 28 -26 40 -45z"/>
<path d="M4716 8871 c-4 -39 -13 -90 -20 -113 l-12 -43 -19 32 c-18 32 -43 49
-53 38 -3 -3 4 -26 16 -53 11 -26 23 -55 26 -64 3 -12 15 -18 34 -18 25 0 30
6 46 51 15 40 18 69 13 136 -6 110 -22 127 -31 34z"/>
<path d="M7836 8023 c-18 -18 -3 -54 34 -84 22 -18 40 -35 40 -39 0 -4 -23
-16 -52 -27 -40 -15 -54 -26 -59 -46 -9 -35 0 -35 90 3 65 26 77 28 123 20 68
-13 68 -13 68 14 0 25 -6 29 -70 41 -22 5 -59 29 -101 66 -37 32 -69 55 -73
52z"/>
<path d="M4633 7985 c-13 -9 -25 -31 -28 -53 -3 -20 -8 -52 -11 -69 -4 -27 -9
-33 -30 -33 -31 0 -51 43 -35 77 6 13 15 23 21 23 12 0 13 47 1 54 -5 4 -23
-6 -40 -20 -26 -22 -31 -33 -31 -70 0 -83 53 -138 111 -115 38 14 52 37 60 98
9 65 21 82 44 63 19 -16 20 -64 1 -79 -16 -14 -10 -51 9 -51 20 0 55 49 55 77
0 84 -70 138 -127 98z"/>
<path d="M7786 7771 c-16 -25 -66 -178 -61 -188 9 -25 34 -13 45 22 6 19 14
35 16 35 3 0 50 -16 106 -35 55 -20 102 -34 104 -32 2 2 5 14 6 27 3 21 -6 26
-92 55 l-95 32 3 40 c1 29 -2 43 -13 46 -8 4 -16 3 -19 -2z"/>
<path d="M4658 7717 c-99 -35 -118 -45 -118 -63 0 -32 8 -34 66 -14 l54 19 15
-36 c24 -57 20 -68 -32 -84 -50 -16 -58 -25 -43 -49 8 -13 26 -9 127 25 87 30
119 45 121 59 6 30 -11 38 -51 21 -49 -20 -56 -19 -67 10 -25 67 -24 71 24 89
47 18 51 23 40 50 -8 20 2 22 -136 -27z"/>
<path d="M7690 7530 c-5 -10 -10 -21 -10 -24 0 -4 85 -46 187 -92 l53 -24 11
21 c6 11 9 22 7 24 -6 5 -128 65 -183 89 -53 24 -55 24 -65 6z"/>
<path d="M4780 7424 c-140 -20 -142 -21 -130 -44 8 -14 21 -20 48 -20 34 0 39
-4 61 -45 23 -43 23 -46 6 -65 -17 -19 -15 -70 3 -70 5 0 42 41 83 92 106 131
102 124 87 148 -15 23 -25 23 -158 4z m90 -40 c0 -14 -42 -64 -54 -64 -19 0
-40 49 -23 55 39 13 77 17 77 9z"/>
<path d="M7642 7414 c-39 -16 -75 -83 -66 -120 9 -35 47 -58 81 -49 16 4 47
22 70 41 47 39 73 37 73 -6 0 -33 -18 -50 -63 -59 -40 -9 -46 -44 -7 -50 87
-12 160 126 94 178 -40 31 -73 26 -128 -19 -53 -44 -64 -48 -73 -24 -10 26 14
64 40 64 42 0 65 43 28 53 -10 2 -32 -1 -49 -9z"/>
<path d="M4930 7209 c-122 -102 -117 -96 -98 -116 16 -15 21 -13 74 30 31 26
60 47 64 47 5 0 -5 -41 -22 -91 -30 -89 -30 -91 -12 -109 19 -18 22 -17 114
62 52 44 95 88 95 97 0 30 -31 22 -84 -24 -29 -25 -56 -45 -61 -45 -4 0 5 39
21 88 23 68 27 92 20 110 -6 12 -14 22 -18 22 -5 0 -46 -32 -93 -71z"/>
<path d="M7432 7156 l-64 -65 58 -54 c137 -125 142 -129 163 -103 10 12 5 21
-25 49 -27 25 -35 39 -30 52 6 16 15 17 80 12 65 -6 75 -4 91 13 10 11 16 23
12 26 -3 3 -33 8 -67 11 -59 6 -61 7 -55 30 3 14 3 33 0 44 -7 21 -53 49 -81
49 -10 0 -46 -29 -82 -64z m118 -21 c0 -8 -13 -29 -29 -47 -28 -32 -29 -32
-55 -15 -14 10 -26 21 -26 26 0 5 16 23 35 40 29 26 39 29 55 21 11 -6 20 -17
20 -25z"/>
<path d="M5164 7037 c-22 -23 -62 -67 -88 -99 l-47 -56 28 -27 c60 -57 101
-78 140 -72 73 12 147 119 124 179 -8 21 -39 53 -97 101 -19 16 -22 15 -60
-26z m79 -47 c37 -30 42 -55 17 -95 -42 -68 -85 -81 -135 -41 l-29 24 39 47
c22 25 47 55 55 65 19 24 22 24 53 0z"/>
<path d="M7254 6994 c-38 -30 -70 -59 -72 -63 -3 -9 145 -194 159 -199 9 -4
137 92 151 113 4 5 1 16 -7 24 -11 12 -21 7 -62 -28 -57 -48 -79 -51 -96 -14
-11 24 -9 28 17 47 62 46 67 51 61 69 -10 25 -21 22 -72 -20 -35 -29 -48 -35
-61 -26 -30 19 -23 38 28 76 53 40 58 48 37 65 -10 9 -30 -2 -83 -44z"/>
<path d="M7113 6883 c-3 -9 1 -55 10 -101 9 -47 15 -88 12 -90 -2 -3 -36 23
-75 58 -58 51 -74 61 -95 56 -14 -4 -25 -10 -25 -15 0 -5 21 -26 48 -47 26
-21 61 -51 77 -66 86 -76 88 -78 118 -55 15 11 15 22 -5 145 -19 113 -25 132
-40 132 -10 0 -21 -7 -25 -17z"/>
<path d="M5392 6861 c-37 -24 -69 -72 -78 -118 -14 -76 71 -154 151 -139 75
14 133 108 113 183 -19 71 -123 113 -186 74z m116 -51 c33 -31 29 -81 -9 -125
-64 -73 -162 -19 -125 69 30 71 90 96 134 56z"/>
<path d="M6872 6771 c-11 -6 -7 -25 21 -92 69 -166 65 -158 87 -152 28 7 25
23 -24 143 -41 102 -56 120 -84 101z"/>
<path d="M5624 6649 c-37 -110 -39 -121 -23 -129 22 -12 32 0 54 70 10 30 21
59 25 64 5 4 16 -27 25 -70 24 -113 23 -111 52 -118 14 -4 26 -6 27 -4 2 2 21
57 45 122 32 92 39 121 29 128 -26 16 -37 6 -57 -54 -12 -35 -25 -69 -30 -77
-11 -17 -14 -8 -36 99 -9 41 -21 78 -28 82 -32 21 -42 7 -83 -113z"/>
<path d="M6771 6731 c-12 -8 -11 -20 7 -82 12 -40 20 -74 17 -77 -2 -2 -37 24
-77 60 -53 46 -79 63 -95 60 -13 -2 -23 -9 -23 -15 1 -17 66 -237 73 -243 3
-3 14 -3 25 0 20 7 20 7 0 77 -10 38 -18 74 -16 79 2 5 34 -20 72 -56 54 -50
74 -63 90 -58 12 4 23 8 25 10 8 7 -64 247 -74 251 -5 1 -16 -1 -24 -6z"/>
<path d="M5954 6661 c-31 -19 -64 -82 -64 -122 0 -38 29 -89 62 -109 38 -23
134 -28 161 -7 11 7 20 32 23 63 l7 52 -53 7 c-40 5 -55 4 -61 -6 -14 -22 -11
-27 21 -34 36 -8 41 -40 8 -49 -41 -10 -58 -6 -83 19 -41 40 -30 128 20 155
30 16 82 4 90 -21 4 -13 15 -19 36 -19 33 0 33 0 18 33 -25 55 -124 75 -185
38z"/>
<path d="M6496 6570 c8 -111 1 -130 -46 -130 -37 0 -48 15 -55 80 -16 146 -14
140 -42 140 l-26 0 8 -92 c9 -123 23 -153 72 -168 29 -9 49 -9 80 -1 61 17 68
31 66 130 -4 121 -9 141 -39 141 l-25 0 7 -100z"/>
<path d="M10324 5789 c-16 -17 -76 -58 -133 -92 -75 -45 -106 -69 -113 -89
-20 -55 -85 -72 -167 -43 -56 19 -86 5 -115 -54 -18 -40 -43 -60 -206 -173
-142 -97 -193 -127 -217 -128 -43 0 -61 29 -71 114 -13 107 -40 112 -82 14
-16 -38 -23 -79 -27 -163 -8 -149 -4 -159 52 -175 80 -22 151 2 176 60 10 22
68 72 189 164 96 72 181 136 188 140 8 5 31 -4 60 -23 60 -38 114 -61 146 -61
32 0 48 -28 34 -55 -13 -24 -221 -240 -438 -454 -162 -161 -304 -276 -353
-287 -42 -9 -70 -77 -71 -174 l-1 -74 50 -19 c100 -37 118 -33 249 67 64 49
119 86 122 83 14 -14 -24 -127 -69 -205 -42 -74 -48 -91 -44 -125 3 -21 16
-50 29 -64 22 -24 27 -25 88 -18 152 18 236 0 290 -61 43 -49 40 -67 -7 -57
-21 4 -87 7 -148 7 -229 -3 -494 -88 -783 -252 -79 -44 -83 -49 -78 -76 21
-104 215 -255 541 -421 241 -122 298 -138 401 -110 49 13 75 27 107 59 74 72
99 146 134 400 23 164 22 163 160 110 78 -29 103 -44 116 -66 16 -29 59 -39
72 -18 4 6 28 22 55 35 85 43 86 81 7 151 -36 32 -65 45 -158 72 -63 18 -144
42 -181 53 l-67 21 5 46 c11 98 -85 197 -237 243 -38 12 -71 24 -73 27 -2 4
14 50 36 102 22 52 48 118 58 145 10 28 35 90 55 138 22 54 33 96 30 109 -18
55 -131 75 -214 38 -24 -11 -46 -19 -48 -16 -13 13 199 184 279 224 44 22 57
36 78 79 16 32 41 63 67 82 42 30 118 123 146 177 9 18 29 36 45 42 74 26 195
207 285 429 l25 61 -22 21 c-36 34 -128 71 -177 71 -38 0 -50 -5 -75 -31z
m-54 -197 c0 -18 -60 -102 -85 -118 -25 -16 -27 -16 -47 3 -27 28 -13 52 54
91 54 31 78 39 78 24z m-344 -1997 c25 -39 14 -123 -31 -225 -59 -135 -115
-180 -222 -180 -89 0 -170 24 -294 85 -142 70 -153 84 -101 132 44 41 114 71
332 144 234 78 288 86 316 44z"/>
<path d="M5551 5726 c-6 -8 -16 -42 -22 -77 -9 -51 -49 -139 -201 -440 l-191
-376 -117 -62 c-106 -55 -123 -61 -179 -61 -95 0 -123 -43 -76 -116 8 -12 55
-54 105 -94 49 -40 90 -76 90 -80 0 -17 -133 -308 -237 -519 l-57 -114 30 -23
c16 -13 52 -40 81 -60 l52 -36 133 76 c72 42 138 74 145 72 21 -9 15 -49 -26
-167 -36 -102 -44 -115 -93 -160 -94 -86 -147 -117 -228 -134 -146 -29 -237
-124 -200 -207 14 -30 109 -96 150 -104 27 -6 36 -1 73 38 24 24 65 81 91 127
27 45 55 85 62 88 7 3 83 -50 170 -117 86 -67 162 -124 169 -126 7 -3 22 16
36 48 24 52 24 59 29 424 l5 371 42 84 c38 75 67 118 165 241 27 33 27 36 17
97 -9 50 -9 72 2 103 13 40 12 41 -18 67 -17 14 -36 43 -43 64 -16 50 -56 86
-103 94 -44 7 -57 27 -33 51 9 9 109 73 223 142 l206 125 37 90 c21 50 59 137
84 195 48 110 53 135 33 161 -28 37 -87 49 -87 18 0 -25 -53 -80 -98 -104 -57
-29 -129 -82 -211 -153 -34 -30 -61 -50 -61 -44 0 5 23 72 50 148 84 232 91
265 78 353 -14 97 -45 136 -77 97z m-296 -1242 c-22 -106 -88 -304 -128 -384
-28 -58 -40 -70 -101 -107 -38 -24 -71 -41 -73 -39 -4 4 74 274 118 413 11 34
33 79 48 100 32 44 132 116 144 104 4 -4 1 -43 -8 -87z"/>
<path d="M8138 5351 c-9 -16 -29 -37 -45 -47 -74 -45 -112 -74 -172 -129 -37
-33 -90 -71 -120 -85 l-54 -25 -15 25 c-47 75 -195 184 -249 184 -70 0 -79
-51 -33 -184 16 -47 30 -106 30 -132 0 -46 0 -47 -77 -107 -106 -84 -336 -200
-380 -194 -83 13 -131 -19 -118 -78 7 -31 27 -51 144 -148 68 -56 77 -61 123
-61 27 0 64 7 83 14 20 9 35 11 35 5 0 -5 -17 -38 -38 -72 -56 -90 -114 -200
-155 -294 -96 -219 -289 -460 -544 -682 -55 -47 -73 -68 -73 -88 0 -25 2 -25
45 -20 96 14 172 72 435 336 229 230 243 244 379 421 253 327 393 580 436 786
9 43 19 80 23 82 4 1 73 43 153 92 l147 90 62 144 c64 150 67 173 24 190 -25
9 -28 8 -46 -23z"/>
<path d="M2934 5267 l-27 -24 33 -66 c36 -74 36 -74 6 -302 -8 -66 -25 -198
-36 -294 -16 -134 -26 -183 -42 -213 -17 -30 -20 -43 -12 -56 20 -32 49 -25
92 22 62 67 80 112 107 268 27 156 55 271 85 351 11 29 20 62 20 75 0 41 -46
113 -130 205 -51 57 -64 61 -96 34z"/>
<path d="M3527 4323 c-4 -3 -7 -21 -7 -38 0 -39 -55 -182 -106 -272 -20 -37
-66 -97 -101 -132 -47 -47 -62 -68 -58 -82 10 -31 42 -22 162 47 132 77 257
134 294 134 14 0 41 10 60 23 26 17 35 31 37 57 2 32 -8 46 -104 153 -94 104
-109 117 -138 117 -18 0 -36 -3 -39 -7z"/>
<path d="M2950 4110 c-74 -76 -121 -115 -161 -134 -31 -15 -73 -45 -95 -67
-61 -63 -193 -172 -259 -214 -33 -21 -86 -58 -119 -83 -38 -29 -61 -41 -65
-33 -4 6 6 50 22 98 38 116 48 261 23 327 -10 25 -32 57 -49 72 l-31 26 -18
-22 c-10 -12 -18 -33 -18 -47 0 -37 -93 -309 -140 -406 -22 -47 -52 -100 -66
-117 -30 -35 -36 -21 68 -147 38 -44 75 -84 83 -87 17 -6 183 71 357 167 116
63 138 80 231 176 156 161 397 511 397 576 0 21 -5 25 -27 24 -21 -1 -53 -28
-133 -109z"/>
<path d="M7914 4055 c-3 -13 6 -74 21 -135 51 -216 56 -357 15 -431 -55 -99
-59 -129 -14 -129 18 0 35 18 75 78 76 113 136 190 201 255 53 53 58 62 58
102 0 101 -63 177 -203 244 -99 48 -144 53 -153 16z"/>
<path d="M5408 3669 c-28 -16 -22 -28 40 -85 65 -58 139 -165 166 -237 18 -48
47 -77 78 -77 45 0 138 138 138 205 0 85 -50 124 -222 174 -111 32 -170 38
-200 20z"/>
<path d="M2192 2590 c-53 -12 -82 -46 -82 -95 0 -51 14 -65 118 -121 43 -23
83 -52 91 -66 29 -51 -9 -98 -80 -98 -41 0 -81 22 -118 67 l-32 38 6 -54 c8
-66 12 -76 31 -60 11 9 24 9 53 0 55 -16 110 -13 158 8 46 21 63 45 63 89 0
43 -30 74 -112 117 -92 48 -118 71 -118 106 0 82 155 57 193 -31 l11 -25 4 29
c2 16 1 43 -2 60 -6 29 -9 32 -49 31 -23 0 -55 3 -72 7 -16 3 -45 3 -63 -2z"/>
<path d="M4701 2589 c-109 -22 -173 -95 -173 -198 0 -85 31 -135 112 -177 54
-29 181 -26 241 4 143 73 141 277 -3 345 -63 30 -117 38 -177 26z m116 -29
c25 -11 51 -33 63 -52 58 -96 22 -255 -67 -289 -72 -27 -153 5 -187 75 -35 71
-19 206 30 247 16 13 83 38 104 38 8 0 34 -8 57 -19z"/>
<path d="M5732 2590 c-106 -22 -173 -92 -180 -188 -6 -85 25 -138 103 -177 54
-27 69 -30 150 -29 53 1 106 7 130 16 l40 15 3 77 c2 56 7 78 17 83 33 12 11
21 -55 20 -38 0 -70 -4 -70 -8 0 -5 6 -9 14 -9 20 0 26 -23 26 -95 l0 -64 -42
-12 c-80 -21 -168 5 -212 64 -30 41 -30 173 0 214 37 50 81 73 141 73 62 0
100 -17 136 -60 14 -16 28 -30 31 -30 3 0 6 24 6 53 l0 54 -52 -1 c-29 -1 -73
2 -98 6 -25 4 -64 3 -88 -2z"/>
<path d="M9025 2585 c-50 -18 -75 -48 -75 -90 0 -42 35 -77 120 -120 112 -57
133 -93 85 -140 -46 -46 -145 -25 -187 39 -28 44 -42 46 -34 6 3 -16 9 -43 12
-60 6 -31 19 -40 26 -18 4 10 13 10 45 0 50 -15 107 -15 153 1 36 12 80 66 80
98 0 31 -49 77 -128 119 -42 22 -85 50 -94 62 -38 44 -11 88 53 88 53 0 92
-22 119 -65 12 -20 24 -34 26 -32 3 2 2 29 -2 58 l-6 54 -42 0 c-22 0 -57 3
-76 7 -22 4 -50 2 -75 -7z"/>
<path d="M2489 2576 c14 -8 28 -22 32 -32 4 -11 8 -82 8 -160 1 -147 -4 -168
-44 -177 -11 -3 23 -5 75 -5 75 0 89 2 68 10 -27 9 -28 12 -28 88 0 43 4 80
10 82 5 2 52 2 105 0 l95 -3 0 -79 0 -79 -32 -10 c-26 -7 -12 -9 67 -9 76 -1
94 2 75 9 -13 6 -28 15 -32 22 -11 18 -10 281 2 312 5 14 20 30 32 35 16 6 -5
9 -72 9 -90 0 -93 -1 -67 -15 26 -14 27 -18 27 -89 l0 -75 -105 0 -105 0 0 75
c0 71 1 76 25 85 14 5 25 12 25 15 0 3 -42 5 -92 5 -84 -1 -91 -2 -69 -14z"/>
<path d="M3125 2428 c-44 -88 -94 -176 -111 -195 l-31 -33 66 1 c36 1 56 4 44
6 -32 6 -34 26 -10 75 l22 43 77 3 c90 3 109 -4 132 -52 23 -49 20 -64 -11
-69 -16 -2 15 -5 67 -5 82 -2 92 0 70 11 -17 9 -53 67 -120 195 -52 100 -100
182 -105 182 -6 0 -46 -73 -90 -162z m115 2 c17 -33 30 -64 30 -70 0 -6 -30
-10 -75 -10 -41 0 -75 2 -75 5 0 19 73 145 81 140 5 -4 23 -33 39 -65z"/>
<path d="M3500 2583 c47 -17 50 -28 50 -193 0 -164 -2 -172 -45 -183 -11 -2
16 -5 60 -5 44 0 73 2 65 5 -46 17 -50 31 -50 165 0 70 4 128 9 128 5 0 76
-70 158 -155 83 -85 153 -152 156 -148 4 3 7 84 7 180 l0 173 33 20 32 20 -80
0 c-76 -1 -79 -2 -53 -15 34 -19 40 -49 36 -175 l-3 -95 -20 21 c-11 12 -74
76 -139 143 l-119 121 -56 -1 c-31 0 -49 -3 -41 -6z"/>
<path d="M4028 2576 l32 -15 0 -163 c0 -90 -4 -168 -8 -174 -4 -7 -18 -14 -32
-17 -14 -2 36 -5 110 -5 74 -1 155 3 180 9 107 24 165 98 158 201 -4 52 -9 63
-43 98 -57 58 -105 71 -280 76 -139 4 -148 4 -117 -10z m243 -21 c168 -60 165
-288 -5 -326 -28 -6 -69 -9 -91 -7 l-40 3 -3 164 c-2 125 1 166 10 173 21 13
82 9 129 -7z"/>
<path d="M5058 2570 l32 -20 0 -153 c0 -160 -5 -181 -45 -190 -11 -3 16 -5 60
-5 62 -1 75 1 55 9 -13 6 -28 15 -32 22 -11 17 -10 267 1 267 5 0 76 -69 157
-154 81 -85 152 -153 156 -150 4 3 8 86 8 185 0 98 4 179 8 179 5 0 17 7 28
15 17 13 12 14 -56 14 -69 0 -73 -1 -51 -13 14 -8 28 -22 32 -32 11 -28 11
-234 0 -234 -5 0 -21 15 -36 33 -15 17 -74 80 -133 140 l-105 107 -56 0 -56 0
33 -20z"/>
<path d="M6263 2574 l27 -15 0 -130 c0 -88 4 -140 14 -163 37 -89 235 -105
311 -26 29 31 30 33 35 171 5 135 6 141 30 159 l25 20 -75 -1 c-60 0 -71 -2
-55 -11 40 -22 45 -38 45 -160 0 -135 -10 -167 -61 -188 -42 -18 -125 -15
-155 5 -14 9 -29 27 -34 41 -12 29 -13 264 -2 279 4 6 18 16 32 22 21 10 10
12 -70 12 -90 0 -93 -1 -67 -15z"/>
<path d="M6765 2575 c45 -32 45 -32 45 -164 0 -169 -4 -189 -44 -200 -24 -7
-13 -9 54 -9 47 0 76 3 65 5 -43 11 -45 20 -45 167 l0 141 160 -165 159 -165
0 173 c1 172 8 212 36 212 7 0 17 5 20 10 4 6 -22 10 -72 9 -43 0 -71 -3 -63
-6 46 -17 50 -31 50 -157 l-1 -121 -137 143 -137 142 -55 0 c-50 -1 -53 -2
-35 -15z"/>
<path d="M7290 2575 c33 -18 35 -32 32 -205 l-3 -150 -32 -9 c-25 -7 -7 -9 73
-9 58 0 92 3 75 7 -28 6 -30 10 -36 66 -9 83 -9 246 0 269 4 10 18 24 32 32
22 12 14 13 -71 13 -86 0 -93 -1 -70 -14z"/>
<path d="M7522 2567 c15 -12 70 -101 122 -197 51 -96 97 -174 101 -173 4 1 45
82 92 180 46 98 94 186 106 195 21 17 20 18 -43 18 -61 0 -63 -1 -42 -16 12
-8 22 -20 22 -25 0 -16 -112 -249 -120 -249 -3 0 -14 15 -23 33 -9 17 -39 75
-67 127 l-51 95 21 17 c22 18 20 18 -61 18 l-84 0 27 -23z"/>
<path d="M8033 2574 l27 -15 0 -163 c0 -170 -2 -178 -45 -189 -11 -2 67 -5
173 -6 l192 -1 10 25 c5 14 13 38 16 53 6 26 5 26 -29 -10 -40 -42 -71 -51
-172 -46 l-70 3 -3 83 -3 82 80 0 c77 0 111 -12 111 -41 0 -5 5 -9 10 -9 6 0
10 26 10 59 0 33 -4 63 -10 66 -5 3 -10 -1 -10 -9 0 -31 -44 -47 -116 -44
l-69 3 -3 72 c-3 71 -2 73 23 79 15 4 59 4 98 1 61 -4 74 -8 92 -31 28 -36 37
-33 33 12 l-3 37 -185 2 c-170 2 -183 1 -157 -13z"/>
<path d="M8474 2565 c26 -24 26 -25 26 -173 0 -155 -5 -176 -45 -185 -11 -3
25 -5 80 -5 78 0 93 2 68 9 l-33 10 0 79 c0 72 2 80 19 80 12 0 53 -36 103
-90 l83 -90 60 1 c50 0 56 2 35 10 -25 10 -180 157 -180 171 0 4 16 10 35 14
51 9 85 45 85 89 0 76 -71 105 -257 105 l-106 0 27 -25z m231 -19 c42 -27 38
-97 -7 -125 -11 -7 -45 -15 -74 -18 l-54 -6 0 80 c0 44 3 83 8 87 11 12 101
-1 127 -18z"/>
<path d="M9336 2576 c18 -8 34 -24 37 -37 10 -35 8 -292 -2 -307 -4 -7 -21
-17 -37 -22 -21 -6 1 -8 76 -8 58 0 92 3 75 7 l-30 6 0 175 0 174 25 13 c22
11 12 13 -75 12 -93 0 -98 -1 -69 -13z"/>
<path d="M9549 2563 c0 -16 -2 -38 -5 -50 -6 -32 8 -28 31 10 19 29 25 32 78
35 l57 3 0 -164 c0 -171 -2 -179 -45 -190 -11 -2 25 -5 80 -5 55 0 91 3 80 5
-43 11 -45 19 -45 189 l0 164 55 0 c57 0 95 -22 95 -55 0 -8 5 -15 10 -15 6 0
10 15 10 34 0 69 8 66 -206 66 l-194 0 -1 -27z"/>
<path d="M10043 2538 c28 -29 73 -79 100 -112 46 -57 47 -60 47 -126 0 -69 -7
-83 -45 -93 -11 -2 27 -5 85 -4 58 0 92 2 75 4 -40 6 -45 16 -45 99 l0 70 72
92 c42 54 82 95 95 98 45 12 22 24 -43 24 -65 0 -66 0 -45 -17 l22 -18 -53
-72 c-29 -40 -57 -72 -63 -72 -14 0 -115 128 -115 145 0 8 10 19 23 24 15 6
-5 9 -70 9 l-93 1 53 -52z"/>
</g>
</svg>
